<svg xmlns="http://www.w3.org/2000/svg" xmlns:xlink="http://www.w3.org/1999/xlink" width="500" zoomAndPan="magnify" viewBox="0 0 375 374.999991" height="500" preserveAspectRatio="xMidYMid meet" version="1.0"><defs><g/><clipPath id="520700e4aa"><path d="M 40.515625 147.894531 L 141.808594 147.894531 L 141.808594 249.183594 L 40.515625 249.183594 Z M 40.515625 147.894531 " clip-rule="nonzero"/></clipPath><clipPath id="d6820f6e3b"><path d="M 91.160156 147.894531 C 63.191406 147.894531 40.515625 170.570312 40.515625 198.539062 C 40.515625 226.511719 63.191406 249.183594 91.160156 249.183594 C 119.132812 249.183594 141.808594 226.511719 141.808594 198.539062 C 141.808594 170.570312 119.132812 147.894531 91.160156 147.894531 Z M 91.160156 147.894531 " clip-rule="nonzero"/></clipPath><clipPath id="546bde0291"><path d="M 156.753906 122.824219 L 213.003906 122.824219 L 213.003906 179.074219 L 156.753906 179.074219 Z M 156.753906 122.824219 " clip-rule="nonzero"/></clipPath><clipPath id="4775049191"><path d="M 184.878906 122.824219 C 169.34375 122.824219 156.753906 135.417969 156.753906 150.949219 C 156.753906 166.484375 169.34375 179.074219 184.878906 179.074219 C 200.410156 179.074219 213.003906 166.484375 213.003906 150.949219 C 213.003906 135.417969 200.410156 122.824219 184.878906 122.824219 Z M 184.878906 122.824219 " clip-rule="nonzero"/></clipPath><clipPath id="41a07f9adc"><path d="M 156.753906 221.058594 L 184.878906 221.058594 L 184.878906 249.183594 L 156.753906 249.183594 Z M 156.753906 221.058594 " clip-rule="nonzero"/></clipPath><clipPath id="ba07a4b64e"><path d="M 170.816406 221.058594 C 163.050781 221.058594 156.753906 227.355469 156.753906 235.121094 C 156.753906 242.890625 163.050781 249.183594 170.816406 249.183594 C 178.582031 249.183594 184.878906 242.890625 184.878906 235.121094 C 184.878906 227.355469 178.582031 221.058594 170.816406 221.058594 Z M 170.816406 221.058594 " clip-rule="nonzero"/></clipPath></defs><g clip-path="url(#520700e4aa)"><g clip-path="url(#d6820f6e3b)"><path fill="#a2dfcb" d="M 40.515625 147.894531 L 141.808594 147.894531 L 141.808594 249.183594 L 40.515625 249.183594 Z M 40.515625 147.894531 " fill-opacity="1" fill-rule="nonzero"/></g></g><g clip-path="url(#546bde0291)"><g clip-path="url(#4775049191)"><path fill="#f6d5bb" d="M 156.753906 122.824219 L 213.003906 122.824219 L 213.003906 179.074219 L 156.753906 179.074219 Z M 156.753906 122.824219 " fill-opacity="1" fill-rule="nonzero"/></g></g><g clip-path="url(#41a07f9adc)"><g clip-path="url(#ba07a4b64e)"><path fill="#f57c89" d="M 156.753906 221.058594 L 184.878906 221.058594 L 184.878906 249.183594 L 156.753906 249.183594 Z M 156.753906 221.058594 " fill-opacity="1" fill-rule="nonzero"/></g></g><g fill="#f6f4f1" fill-opacity="1"><g transform="translate(141.8073, 206.249986)"><g><path d="M 15.773438 -0.828125 C 18.003906 -1.929688 19.777344 -4.484375 21.109375 -7.3125 C 21.179688 -7.449219 21.316406 -7.519531 21.453125 -7.472656 C 21.617188 -7.449219 21.707031 -7.3125 21.683594 -7.152344 C 21.523438 -4.804688 21.707031 -2.875 22.742188 -1.632812 C 23.523438 -0.757812 24.652344 -0.277344 25.824219 -0.300781 C 30.054688 -0.160156 32.929688 -5.65625 34.214844 -10.808594 C 35.503906 -16.003906 35.527344 -22.304688 32.46875 -23.824219 C 32.261719 -23.914062 32.03125 -23.914062 31.847656 -23.800781 C 31.6875 -23.683594 31.570312 -23.476562 31.59375 -23.246094 C 31.59375 -23.039062 31.734375 -22.835938 31.917969 -22.742188 C 33.941406 -21.753906 34.421875 -16.625 33.042969 -11.105469 C 31.917969 -6.621094 29.363281 -1.472656 25.871094 -1.519531 C 25.042969 -1.472656 24.238281 -1.792969 23.660156 -2.390625 C 22.28125 -4.070312 22.902344 -8.046875 23.570312 -12.257812 C 23.824219 -13.773438 24.074219 -15.335938 24.238281 -16.878906 C 24.28125 -17.199219 24.054688 -17.5 23.753906 -17.546875 C 23.433594 -17.589844 23.132812 -17.382812 23.0625 -17.085938 C 21.269531 -9.105469 18.351562 -3.449219 15.246094 -1.910156 C 14.097656 -1.332031 12.738281 -1.332031 11.613281 -1.929688 C 8.484375 -3.378906 10.761719 -8.785156 12.761719 -13.542969 C 14.324219 -17.246094 15.660156 -20.441406 14.738281 -22.167969 C 14.417969 -22.742188 13.820312 -23.15625 13.152344 -23.246094 C 9.015625 -24.007812 3.5625 -20.949219 1.746094 -16.808594 C 0.390625 -13.726562 1.332031 -10.648438 4.324219 -8.394531 C 4.597656 -8.1875 4.96875 -8.253906 5.175781 -8.507812 C 5.378906 -8.785156 5.335938 -9.152344 5.058594 -9.359375 C 1.769531 -11.820312 2.046875 -14.511719 2.851562 -16.328125 C 4.4375 -19.9375 9.359375 -22.71875 12.921875 -22.050781 C 13.246094 -22.027344 13.519531 -21.867188 13.683594 -21.59375 C 14.324219 -20.375 12.96875 -17.152344 11.660156 -14.027344 C 9.429688 -8.761719 6.921875 -2.78125 11.082031 -0.828125 C 11.820312 -0.484375 12.648438 -0.277344 13.453125 -0.277344 C 14.257812 -0.277344 15.0625 -0.484375 15.773438 -0.828125 Z M 15.773438 -0.828125 "/></g></g></g><g fill="#f6f4f1" fill-opacity="1"><g transform="translate(176.479612, 206.249986)"><g><path d="M 19.292969 -5.910156 C 19.179688 -6.023438 19.039062 -6.117188 18.878906 -6.117188 C 18.71875 -6.140625 18.558594 -6.09375 18.441406 -6 C 18.351562 -5.933594 9.496094 1.105469 2.117188 -1.929688 C 0.621094 -2.550781 0.550781 -3.355469 0.597656 -3.792969 C 0.597656 -3.863281 0.621094 -3.933594 0.691406 -3.976562 C 0.734375 -4.023438 0.828125 -4.023438 0.898438 -4 C 2.390625 -3.910156 3.886719 -4.300781 5.175781 -5.105469 C 6.277344 -5.816406 6.460938 -6.597656 6.394531 -7.105469 C 6.347656 -7.933594 5.679688 -8.601562 4.828125 -8.625 C 3.011719 -8.714844 -0.0234375 -6.554688 -0.527344 -4.253906 C -0.734375 -3.402344 -0.710938 -1.792969 1.65625 -0.828125 C 3.105469 -0.230469 4.621094 0.046875 6.164062 0.046875 C 12.761719 0.046875 18.878906 -4.804688 19.199219 -5.058594 C 19.316406 -5.152344 19.40625 -5.3125 19.40625 -5.449219 C 19.429688 -5.609375 19.386719 -5.773438 19.292969 -5.910156 Z M 1.425781 -5.402344 C 2.324219 -6.644531 3.816406 -7.472656 4.761719 -7.40625 C 5.011719 -7.40625 5.152344 -7.3125 5.195312 -6.96875 C 5.21875 -6.738281 4.96875 -6.414062 4.507812 -6.117188 C 3.5625 -5.496094 0.734375 -4.484375 1.425781 -5.402344 Z M 1.425781 -5.402344 "/></g></g></g><g fill="#f6f4f1" fill-opacity="1"><g transform="translate(194.896404, 206.249986)"><g><path d="M 17.453125 -5.75 C 17.339844 -5.863281 17.175781 -5.933594 17.015625 -5.933594 C 16.855469 -5.933594 16.71875 -5.886719 16.601562 -5.773438 C 13.199219 -2.507812 8.230469 -3.609375 4.898438 -5.472656 C 4.828125 -5.726562 4.714844 -5.957031 4.554688 -6.164062 C 4.117188 -6.667969 3.402344 -6.851562 2.804688 -6.578125 C 2.597656 -6.507812 2.4375 -6.324219 2.414062 -6.09375 C 2.367188 -5.886719 2.460938 -5.65625 2.644531 -5.519531 C 2.828125 -5.378906 3.035156 -5.21875 3.265625 -5.082031 C 3.65625 -4.828125 3.863281 -4.390625 3.792969 -3.933594 C 3.703125 -3.335938 3.519531 -2.757812 3.195312 -2.230469 C 3.035156 -1.929688 2.804688 -1.679688 2.53125 -1.449219 C 2.160156 -1.171875 1.679688 -1.105469 1.242188 -1.289062 C 0.804688 -1.449219 0.507812 -1.839844 0.414062 -2.300781 C 0.320312 -2.964844 0.320312 -3.65625 0.390625 -4.347656 C 0.414062 -4.347656 0.4375 -4.367188 0.460938 -4.390625 C 2.484375 -6.1875 9.128906 -16.394531 7.886719 -19.015625 C 7.589844 -19.613281 6.921875 -19.914062 6.277344 -19.753906 C 3.839844 -19.363281 0.160156 -10.667969 -0.644531 -5.65625 C -1.148438 -2.574219 -0.757812 -0.667969 0.527344 0.046875 L 0.757812 0.113281 C 0.964844 0.160156 1.171875 0.183594 1.378906 0.183594 C 2.574219 0.136719 3.679688 -0.527344 4.230469 -1.609375 C 4.507812 -2.046875 4.714844 -2.550781 4.851562 -3.058594 C 4.898438 -3.289062 5.082031 -3.496094 5.289062 -3.585938 C 5.519531 -3.703125 5.773438 -3.703125 5.980469 -3.609375 C 9.542969 -2.117188 14.097656 -1.703125 17.429688 -4.898438 C 17.546875 -5.011719 17.613281 -5.175781 17.613281 -5.3125 C 17.613281 -5.472656 17.566406 -5.632812 17.453125 -5.75 Z M 6.460938 -18.558594 C 6.507812 -18.558594 6.578125 -18.558594 6.621094 -18.558594 C 6.761719 -18.558594 6.785156 -18.511719 6.804688 -18.511719 C 7.011719 -18.074219 6.714844 -16.210938 4.367188 -12.003906 C 3.425781 -10.347656 2.390625 -8.761719 1.265625 -7.199219 C 1.21875 -7.128906 1.125 -7.105469 1.035156 -7.152344 C 0.964844 -7.199219 0.917969 -7.289062 0.941406 -7.359375 C 2.253906 -12.671875 5.289062 -18.371094 6.460938 -18.558594 Z M 6.460938 -18.558594 "/></g></g></g><g fill="#f6f4f1" fill-opacity="1"><g transform="translate(211.519805, 206.249986)"><g><path d="M 24.949219 -8.210938 C 28.144531 -13.152344 30.144531 -20.050781 27.753906 -23.617188 C 27.640625 -23.800781 27.433594 -23.914062 27.226562 -23.890625 C 26.996094 -23.890625 26.8125 -23.753906 26.71875 -23.546875 C 26.628906 -23.363281 26.628906 -23.132812 26.765625 -22.949219 C 28.582031 -20.234375 27.363281 -14.164062 23.9375 -8.851562 C 20.257812 -3.171875 15.382812 -0.207031 10.875 -0.941406 C 10.601562 -0.964844 10.371094 -1.125 10.234375 -1.355469 C 9.40625 -2.757812 11.039062 -7.152344 12.484375 -11.039062 C 14.234375 -15.707031 15.867188 -20.121094 14.71875 -22.167969 C 14.394531 -22.742188 13.820312 -23.132812 13.152344 -23.246094 C 9.015625 -24.007812 3.5625 -20.949219 1.746094 -16.808594 C 0.390625 -13.726562 1.332031 -10.648438 4.324219 -8.394531 C 4.597656 -8.1875 4.96875 -8.230469 5.175781 -8.507812 C 5.378906 -8.785156 5.335938 -9.152344 5.058594 -9.359375 C 1.769531 -11.820312 2.046875 -14.511719 2.851562 -16.328125 C 4.4375 -19.9375 9.335938 -22.71875 12.921875 -22.050781 C 13.246094 -22.027344 13.519531 -21.84375 13.660156 -21.570312 C 14.53125 -20.003906 12.855469 -15.476562 11.359375 -11.453125 C 9.589844 -6.738281 8.070312 -2.644531 9.175781 -0.757812 C 9.496094 -0.207031 10.046875 0.160156 10.667969 0.230469 C 11.199219 0.320312 11.726562 0.367188 12.257812 0.367188 C 16.761719 0.367188 21.410156 -2.738281 24.949219 -8.210938 Z M 24.949219 -8.210938 "/></g></g></g><g fill="#f6f4f1" fill-opacity="1"><g transform="translate(237.593015, 206.249986)"><g><path d="M 14.902344 -6.207031 C 14.648438 -6.4375 14.28125 -6.4375 14.050781 -6.1875 C 13.957031 -6.117188 6.507812 1.472656 1.5625 -2.136719 C 0.046875 -3.242188 1.519531 -6.117188 1.539062 -6.140625 C 1.679688 -6.4375 1.5625 -6.785156 1.265625 -6.945312 C 0.964844 -7.082031 0.621094 -6.992188 0.460938 -6.691406 C 0.367188 -6.554688 -1.496094 -2.898438 0.851562 -1.171875 C 1.929688 -0.367188 3.265625 0.0703125 4.621094 0.046875 C 9.589844 0.046875 14.625 -5.082031 14.902344 -5.359375 C 15.015625 -5.472656 15.085938 -5.609375 15.085938 -5.773438 C 15.0625 -5.933594 15.015625 -6.09375 14.902344 -6.207031 Z M 0.207031 -8.023438 C 0.300781 -8.023438 0.390625 -8.046875 0.484375 -8.09375 C 1.035156 -8.371094 1.519531 -8.738281 1.953125 -9.175781 C 2.183594 -9.429688 2.160156 -9.796875 1.929688 -10.027344 C 1.679688 -10.253906 1.3125 -10.253906 1.082031 -10.003906 C 0.734375 -9.65625 0.34375 -9.382812 -0.09375 -9.152344 C -0.320312 -9.035156 -0.460938 -8.738281 -0.390625 -8.484375 C -0.320312 -8.210938 -0.0703125 -8.023438 0.207031 -8.023438 Z M 0.207031 -8.023438 "/></g></g></g><g fill="#f6f4f1" fill-opacity="1"><g transform="translate(251.710263, 206.249986)"><g><path d="M 15.773438 -6.371094 C 15.660156 -6.484375 15.523438 -6.53125 15.359375 -6.53125 C 15.199219 -6.53125 15.039062 -6.484375 14.921875 -6.371094 C 12.714844 -4.277344 10.003906 -2.804688 7.035156 -2.09375 C 6.921875 -2.046875 6.785156 -2.09375 6.714844 -2.183594 C 6.644531 -2.300781 6.621094 -2.414062 6.691406 -2.53125 C 7.105469 -3.335938 7.011719 -4.300781 6.484375 -5.035156 C 6.164062 -5.472656 5.75 -5.839844 5.265625 -6.117188 C 4.621094 -6.554688 3.910156 -7.058594 3.886719 -7.589844 C 3.910156 -7.886719 4.023438 -8.164062 4.230469 -8.394531 L 5.472656 -9.566406 C 5.703125 -9.796875 5.726562 -10.164062 5.519531 -10.394531 C 5.3125 -10.648438 4.96875 -10.691406 4.691406 -10.484375 C 4.207031 -10.117188 3.75 -9.703125 3.355469 -9.222656 L -0.183594 -5.910156 C -0.34375 -5.773438 -0.414062 -5.542969 -0.367188 -5.335938 C -0.320312 -5.105469 -0.160156 -4.945312 0.046875 -4.875 C 0.253906 -4.828125 0.484375 -4.875 0.644531 -5.035156 L 2.390625 -6.667969 C 2.484375 -6.761719 2.597656 -6.785156 2.714844 -6.785156 C 2.828125 -6.761719 2.921875 -6.691406 2.964844 -6.597656 C 3.402344 -6 3.957031 -5.496094 4.574219 -5.128906 C 4.921875 -4.921875 5.21875 -4.691406 5.472656 -4.390625 C 5.703125 -4.140625 5.816406 -3.792969 5.75 -3.449219 C 5.679688 -3.105469 5.472656 -2.804688 5.175781 -2.644531 C 3.703125 -1.816406 1.839844 -2.207031 0.828125 -3.5625 C 0.667969 -3.816406 0.300781 -3.910156 0.0234375 -3.726562 C -0.253906 -3.5625 -0.34375 -3.21875 -0.183594 -2.921875 C 0.574219 -1.609375 1.929688 -0.757812 3.449219 -0.644531 C 3.839844 -0.574219 4.207031 -0.550781 4.597656 -0.550781 C 8.484375 -0.550781 13.269531 -2.988281 15.773438 -5.519531 C 16.003906 -5.75 16.003906 -6.140625 15.773438 -6.371094 Z M 15.773438 -6.371094 "/></g></g></g><g fill="#f6f4f1" fill-opacity="1"><g transform="translate(266.563262, 206.249986)"><g><path d="M 14.902344 -6.207031 C 14.648438 -6.4375 14.28125 -6.4375 14.050781 -6.1875 C 13.957031 -6.117188 6.507812 1.472656 1.5625 -2.136719 C 0.046875 -3.242188 1.519531 -6.117188 1.539062 -6.140625 C 1.679688 -6.4375 1.5625 -6.785156 1.265625 -6.945312 C 0.964844 -7.082031 0.621094 -6.992188 0.460938 -6.691406 C 0.367188 -6.554688 -1.496094 -2.898438 0.851562 -1.171875 C 1.929688 -0.367188 3.265625 0.0703125 4.621094 0.046875 C 9.589844 0.046875 14.625 -5.082031 14.902344 -5.359375 C 15.015625 -5.472656 15.085938 -5.609375 15.085938 -5.773438 C 15.0625 -5.933594 15.015625 -6.09375 14.902344 -6.207031 Z M 0.207031 -8.023438 C 0.300781 -8.023438 0.390625 -8.046875 0.484375 -8.09375 C 1.035156 -8.371094 1.519531 -8.738281 1.953125 -9.175781 C 2.183594 -9.429688 2.160156 -9.796875 1.929688 -10.027344 C 1.679688 -10.253906 1.3125 -10.253906 1.082031 -10.003906 C 0.734375 -9.65625 0.34375 -9.382812 -0.09375 -9.152344 C -0.320312 -9.035156 -0.460938 -8.738281 -0.390625 -8.484375 C -0.320312 -8.210938 -0.0703125 -8.023438 0.207031 -8.023438 Z M 0.207031 -8.023438 "/></g></g></g><g fill="#f6f4f1" fill-opacity="1"><g transform="translate(280.68051, 206.249986)"><g><path d="M 16.761719 -6.53125 C 16.648438 -6.644531 16.511719 -6.691406 16.347656 -6.691406 C 16.1875 -6.691406 16.027344 -6.644531 15.914062 -6.53125 C 13.152344 -3.769531 9.242188 -2.507812 5.402344 -3.148438 C 5.105469 -3.21875 4.898438 -3.496094 4.945312 -3.792969 C 5.128906 -4.898438 5.035156 -6.023438 4.390625 -6.394531 C 3.976562 -6.621094 3.355469 -6.644531 2.621094 -5.402344 C 2.34375 -4.988281 2.253906 -4.484375 2.34375 -4 C 2.460938 -3.519531 2.757812 -3.082031 3.171875 -2.828125 C 3.425781 -2.621094 3.128906 -2.277344 2.964844 -2.117188 C 2.53125 -1.585938 1.769531 -1.496094 1.242188 -1.910156 C 0.574219 -2.207031 0.277344 -2.945312 0.527344 -3.609375 C 0.828125 -4.828125 2.023438 -5.886719 2.460938 -5.886719 C 2.78125 -5.886719 3.058594 -6.164062 3.058594 -6.484375 C 3.082031 -6.804688 2.804688 -7.082031 2.484375 -7.105469 L 2.460938 -7.105469 C 1.3125 -7.105469 -0.230469 -5.542969 -0.644531 -3.910156 C -1.035156 -2.714844 -0.484375 -1.402344 0.667969 -0.851562 C 1.105469 -0.597656 1.585938 -0.484375 2.09375 -0.460938 C 3.082031 -0.507812 3.957031 -1.105469 4.367188 -2.023438 C 4.414062 -2.09375 4.53125 -2.136719 4.621094 -2.117188 C 7.542969 -1.242188 12.878906 -1.792969 16.761719 -5.65625 C 16.878906 -5.773438 16.949219 -5.933594 16.949219 -6.09375 C 16.949219 -6.253906 16.878906 -6.414062 16.761719 -6.53125 Z M 3.75 -3.910156 C 3.496094 -4.140625 3.449219 -4.507812 3.65625 -4.78125 C 3.726562 -4.898438 3.769531 -4.96875 3.816406 -5.035156 C 3.839844 -4.667969 3.816406 -4.277344 3.75 -3.910156 Z M 3.75 -3.910156 "/></g></g></g><g fill="#f6f4f1" fill-opacity="1"><g transform="translate(296.568159, 206.249986)"><g><path d="M 20.097656 -5.726562 C 19.960938 -5.816406 19.820312 -5.886719 19.660156 -5.886719 C 19.5 -5.863281 19.339844 -5.792969 19.246094 -5.679688 C 19.179688 -5.632812 14.117188 -0.230469 9.726562 -2 C 8.785156 -2.507812 8.023438 -3.265625 7.496094 -4.207031 C 7.3125 -4.507812 7.082031 -4.804688 6.804688 -5.082031 C 6.507812 -5.449219 6.046875 -5.65625 5.566406 -5.679688 C 4.390625 -5.773438 2.964844 -4.988281 1.265625 -3.378906 C 1.21875 -3.335938 1.148438 -3.3125 1.082031 -3.355469 C 1.011719 -3.378906 0.964844 -3.472656 0.988281 -3.542969 L 1.496094 -5.792969 C 1.585938 -6.117188 1.378906 -6.460938 1.058594 -6.53125 C 0.734375 -6.597656 0.414062 -6.394531 0.320312 -6.070312 L -0.828125 -1.035156 C -0.898438 -0.757812 -0.757812 -0.484375 -0.507812 -0.367188 C -0.253906 -0.230469 0.046875 -0.300781 0.230469 -0.507812 C 3.3125 -4.117188 4.875 -4.460938 5.425781 -4.484375 C 5.980469 -4.507812 6.324219 -3.792969 6.507812 -3.519531 C 7.152344 -2.390625 8.117188 -1.472656 9.265625 -0.898438 C 14.417969 1.195312 19.890625 -4.621094 20.121094 -4.875 C 20.351562 -5.105469 20.328125 -5.496094 20.097656 -5.726562 Z M 20.097656 -5.726562 "/></g></g></g><g fill="#f6f4f1" fill-opacity="1"><g transform="translate(315.720703, 206.249986)"><g><path d="M 16.671875 -3.21875 C 18.003906 -7.289062 14.371094 -10.945312 10.875 -14.511719 C 7.542969 -17.890625 4.367188 -21.109375 5.910156 -24.191406 C 7.058594 -26.535156 10.554688 -26.285156 12.53125 -25.914062 C 17.84375 -24.902344 23.683594 -21.132812 23.914062 -18.578125 C 23.984375 -17.660156 23.269531 -16.902344 21.753906 -16.328125 C 19.636719 -15.75 17.429688 -15.636719 15.269531 -15.933594 C 14.945312 -15.980469 14.648438 -15.75 14.601562 -15.429688 C 14.554688 -15.109375 14.785156 -14.808594 15.109375 -14.738281 C 17.476562 -14.394531 19.867188 -14.554688 22.191406 -15.199219 C 24.765625 -16.164062 25.203125 -17.636719 25.109375 -18.671875 C 24.8125 -22.167969 18.210938 -26.054688 12.761719 -27.089844 C 8.761719 -27.847656 5.957031 -26.996094 4.828125 -24.71875 C 2.898438 -20.878906 6.53125 -17.199219 10.027344 -13.660156 C 13.269531 -10.371094 16.625 -6.96875 15.542969 -3.585938 C 14.855469 -1.449219 11.246094 -0.691406 8.210938 -0.898438 C 5.082031 -1.105469 2.621094 -2.230469 2.367188 -3.5625 C 2.230469 -4.277344 2.597656 -6.207031 8.738281 -9.015625 C 8.921875 -9.105469 9.058594 -9.289062 9.082031 -9.519531 C 9.105469 -9.726562 9.015625 -9.957031 8.832031 -10.070312 C 8.644531 -10.1875 8.417969 -10.210938 8.230469 -10.117188 C 3.148438 -7.796875 0.78125 -5.519531 1.171875 -3.355469 C 1.609375 -0.964844 5.195312 0.113281 8.140625 0.300781 C 8.484375 0.320312 8.832031 0.34375 9.175781 0.34375 C 12.300781 0.34375 15.820312 -0.574219 16.671875 -3.21875 Z M 16.671875 -3.21875 "/></g></g></g><g fill="#f6f4f1" fill-opacity="1"><g transform="translate(335.310104, 206.249986)"><g><path d="M 19.292969 -5.910156 C 19.179688 -6.023438 19.039062 -6.117188 18.878906 -6.117188 C 18.71875 -6.140625 18.558594 -6.09375 18.441406 -6 C 18.351562 -5.933594 9.496094 1.105469 2.117188 -1.929688 C 0.621094 -2.550781 0.550781 -3.355469 0.597656 -3.792969 C 0.597656 -3.863281 0.621094 -3.933594 0.691406 -3.976562 C 0.734375 -4.023438 0.828125 -4.023438 0.898438 -4 C 2.390625 -3.910156 3.886719 -4.300781 5.175781 -5.105469 C 6.277344 -5.816406 6.460938 -6.597656 6.394531 -7.105469 C 6.347656 -7.933594 5.679688 -8.601562 4.828125 -8.625 C 3.011719 -8.714844 -0.0234375 -6.554688 -0.527344 -4.253906 C -0.734375 -3.402344 -0.710938 -1.792969 1.65625 -0.828125 C 3.105469 -0.230469 4.621094 0.046875 6.164062 0.046875 C 12.761719 0.046875 18.878906 -4.804688 19.199219 -5.058594 C 19.316406 -5.152344 19.40625 -5.3125 19.40625 -5.449219 C 19.429688 -5.609375 19.386719 -5.773438 19.292969 -5.910156 Z M 1.425781 -5.402344 C 2.324219 -6.644531 3.816406 -7.472656 4.761719 -7.40625 C 5.011719 -7.40625 5.152344 -7.3125 5.195312 -6.96875 C 5.21875 -6.738281 4.96875 -6.414062 4.507812 -6.117188 C 3.5625 -5.496094 0.734375 -4.484375 1.425781 -5.402344 Z M 1.425781 -5.402344 "/></g></g></g><g fill="#f6f4f1" fill-opacity="1"><g transform="translate(353.726896, 206.249986)"><g><path d="M 16.761719 -6.53125 C 16.648438 -6.644531 16.511719 -6.691406 16.347656 -6.691406 C 16.1875 -6.691406 16.027344 -6.644531 15.914062 -6.53125 C 13.152344 -3.769531 9.242188 -2.507812 5.402344 -3.148438 C 5.105469 -3.21875 4.898438 -3.496094 4.945312 -3.792969 C 5.128906 -4.898438 5.035156 -6.023438 4.390625 -6.394531 C 3.976562 -6.621094 3.355469 -6.644531 2.621094 -5.402344 C 2.34375 -4.988281 2.253906 -4.484375 2.34375 -4 C 2.460938 -3.519531 2.757812 -3.082031 3.171875 -2.828125 C 3.425781 -2.621094 3.128906 -2.277344 2.964844 -2.117188 C 2.53125 -1.585938 1.769531 -1.496094 1.242188 -1.910156 C 0.574219 -2.207031 0.277344 -2.945312 0.527344 -3.609375 C 0.828125 -4.828125 2.023438 -5.886719 2.460938 -5.886719 C 2.78125 -5.886719 3.058594 -6.164062 3.058594 -6.484375 C 3.082031 -6.804688 2.804688 -7.082031 2.484375 -7.105469 L 2.460938 -7.105469 C 1.3125 -7.105469 -0.230469 -5.542969 -0.644531 -3.910156 C -1.035156 -2.714844 -0.484375 -1.402344 0.667969 -0.851562 C 1.105469 -0.597656 1.585938 -0.484375 2.09375 -0.460938 C 3.082031 -0.507812 3.957031 -1.105469 4.367188 -2.023438 C 4.414062 -2.09375 4.53125 -2.136719 4.621094 -2.117188 C 7.542969 -1.242188 12.878906 -1.792969 16.761719 -5.65625 C 16.878906 -5.773438 16.949219 -5.933594 16.949219 -6.09375 C 16.949219 -6.253906 16.878906 -6.414062 16.761719 -6.53125 Z M 3.75 -3.910156 C 3.496094 -4.140625 3.449219 -4.507812 3.65625 -4.78125 C 3.726562 -4.898438 3.769531 -4.96875 3.816406 -5.035156 C 3.839844 -4.667969 3.816406 -4.277344 3.75 -3.910156 Z M 3.75 -3.910156 "/></g></g></g><g fill="#f6f4f1" fill-opacity="1"><g transform="translate(184.877952, 221.189532)"><g><path d="M 0.296875 -6.703125 L 1.046875 -6.703125 L 2.734375 -1.5625 L 4.609375 -6.703125 L 4.8125 -6.703125 L 6.6875 -1.65625 L 8.375 -6.703125 L 9.0625 -6.703125 L 6.796875 0.203125 L 6.640625 0.203125 L 4.6875 -5.046875 L 2.78125 0.203125 L 2.578125 0.203125 Z M 0.296875 -6.703125 "/></g></g></g><g fill="#f6f4f1" fill-opacity="1"><g transform="translate(196.394264, 221.189532)"><g><path d="M 0.90625 -6.703125 L 4.34375 -6.703125 L 4.34375 -6.046875 L 1.59375 -6.046875 L 1.59375 -3.796875 L 3.703125 -3.796875 L 3.703125 -3.15625 L 1.59375 -3.15625 L 1.59375 -0.65625 L 4.40625 -0.65625 L 4.40625 0 L 0.90625 0 Z M 0.90625 -6.703125 "/></g></g></g><g fill="#f6f4f1" fill-opacity="1"><g transform="translate(203.542298, 221.189532)"><g><path d="M 0.90625 -6.703125 L 2.40625 -6.703125 C 2.707031 -6.703125 2.988281 -6.65625 3.25 -6.5625 C 3.507812 -6.476562 3.734375 -6.359375 3.921875 -6.203125 C 4.109375 -6.046875 4.253906 -5.859375 4.359375 -5.640625 C 4.460938 -5.429688 4.515625 -5.203125 4.515625 -4.953125 C 4.515625 -4.640625 4.4375 -4.363281 4.28125 -4.125 C 4.132812 -3.882812 3.921875 -3.691406 3.640625 -3.546875 C 4.023438 -3.398438 4.332031 -3.179688 4.5625 -2.890625 C 4.789062 -2.597656 4.90625 -2.257812 4.90625 -1.875 C 4.90625 -1.601562 4.847656 -1.351562 4.734375 -1.125 C 4.617188 -0.90625 4.457031 -0.707031 4.25 -0.53125 C 4.050781 -0.363281 3.804688 -0.234375 3.515625 -0.140625 C 3.234375 -0.046875 2.925781 0 2.59375 0 L 0.90625 0 Z M 2.59375 -0.65625 C 3.070312 -0.65625 3.457031 -0.769531 3.75 -1 C 4.050781 -1.226562 4.203125 -1.535156 4.203125 -1.921875 C 4.203125 -2.296875 4.050781 -2.597656 3.75 -2.828125 C 3.457031 -3.066406 3.070312 -3.1875 2.59375 -3.1875 L 1.59375 -3.1875 L 1.59375 -0.65625 Z M 2.40625 -3.796875 C 2.832031 -3.796875 3.171875 -3.894531 3.421875 -4.09375 C 3.679688 -4.300781 3.8125 -4.570312 3.8125 -4.90625 C 3.8125 -5.257812 3.679688 -5.535156 3.421875 -5.734375 C 3.171875 -5.941406 2.832031 -6.046875 2.40625 -6.046875 L 1.59375 -6.046875 L 1.59375 -3.796875 Z M 2.40625 -3.796875 "/></g></g></g><g fill="#f6f4f1" fill-opacity="1"><g transform="translate(211.190143, 221.189532)"><g/></g></g><g fill="#f6f4f1" fill-opacity="1"><g transform="translate(215.539284, 221.189532)"><g><path d="M 0.90625 -6.703125 L 3.09375 -6.703125 C 3.601562 -6.703125 4.070312 -6.617188 4.5 -6.453125 C 4.9375 -6.285156 5.3125 -6.050781 5.625 -5.75 C 5.945312 -5.445312 6.195312 -5.085938 6.375 -4.671875 C 6.5625 -4.265625 6.65625 -3.820312 6.65625 -3.34375 C 6.65625 -2.863281 6.5625 -2.421875 6.375 -2.015625 C 6.195312 -1.609375 5.945312 -1.253906 5.625 -0.953125 C 5.3125 -0.660156 4.9375 -0.425781 4.5 -0.25 C 4.070312 -0.0820312 3.601562 0 3.09375 0 L 0.90625 0 Z M 3.078125 -0.65625 C 3.484375 -0.65625 3.859375 -0.71875 4.203125 -0.84375 C 4.554688 -0.976562 4.859375 -1.164062 5.109375 -1.40625 C 5.359375 -1.644531 5.550781 -1.929688 5.6875 -2.265625 C 5.832031 -2.597656 5.90625 -2.957031 5.90625 -3.34375 C 5.90625 -3.738281 5.832031 -4.101562 5.6875 -4.4375 C 5.550781 -4.769531 5.359375 -5.054688 5.109375 -5.296875 C 4.859375 -5.535156 4.554688 -5.71875 4.203125 -5.84375 C 3.859375 -5.976562 3.484375 -6.046875 3.078125 -6.046875 L 1.59375 -6.046875 L 1.59375 -0.65625 Z M 3.078125 -0.65625 "/></g></g></g><g fill="#f6f4f1" fill-opacity="1"><g transform="translate(224.836472, 221.189532)"><g><path d="M 0.90625 -6.703125 L 4.34375 -6.703125 L 4.34375 -6.046875 L 1.59375 -6.046875 L 1.59375 -3.796875 L 3.703125 -3.796875 L 3.703125 -3.15625 L 1.59375 -3.15625 L 1.59375 -0.65625 L 4.40625 -0.65625 L 4.40625 0 L 0.90625 0 Z M 0.90625 -6.703125 "/></g></g></g><g fill="#f6f4f1" fill-opacity="1"><g transform="translate(231.984505, 221.189532)"><g><path d="M 2.515625 0.09375 C 2.054688 0.09375 1.632812 -0.0078125 1.25 -0.21875 C 0.875 -0.4375 0.554688 -0.75 0.296875 -1.15625 L 0.84375 -1.59375 C 1.3125 -0.894531 1.867188 -0.546875 2.515625 -0.546875 C 2.910156 -0.546875 3.226562 -0.648438 3.46875 -0.859375 C 3.707031 -1.078125 3.828125 -1.359375 3.828125 -1.703125 C 3.828125 -2.015625 3.71875 -2.28125 3.5 -2.5 C 3.289062 -2.71875 2.941406 -2.925781 2.453125 -3.125 C 1.847656 -3.351562 1.410156 -3.625 1.140625 -3.9375 C 0.867188 -4.25 0.734375 -4.625 0.734375 -5.0625 C 0.734375 -5.320312 0.773438 -5.554688 0.859375 -5.765625 C 0.953125 -5.984375 1.078125 -6.164062 1.234375 -6.3125 C 1.398438 -6.46875 1.59375 -6.585938 1.8125 -6.671875 C 2.039062 -6.753906 2.289062 -6.796875 2.5625 -6.796875 C 3.320312 -6.796875 3.953125 -6.457031 4.453125 -5.78125 L 3.921875 -5.34375 C 3.722656 -5.625 3.507812 -5.828125 3.28125 -5.953125 C 3.0625 -6.085938 2.816406 -6.15625 2.546875 -6.15625 C 2.210938 -6.15625 1.941406 -6.0625 1.734375 -5.875 C 1.535156 -5.6875 1.4375 -5.4375 1.4375 -5.125 C 1.4375 -4.820312 1.535156 -4.566406 1.734375 -4.359375 C 1.941406 -4.148438 2.285156 -3.953125 2.765625 -3.765625 C 3.367188 -3.523438 3.8125 -3.242188 4.09375 -2.921875 C 4.382812 -2.597656 4.53125 -2.210938 4.53125 -1.765625 C 4.53125 -1.492188 4.476562 -1.242188 4.375 -1.015625 C 4.28125 -0.785156 4.140625 -0.585938 3.953125 -0.421875 C 3.773438 -0.253906 3.5625 -0.125 3.3125 -0.03125 C 3.070312 0.0507812 2.804688 0.09375 2.515625 0.09375 Z M 2.515625 0.09375 "/></g></g></g><g fill="#f6f4f1" fill-opacity="1"><g transform="translate(239.162534, 221.189532)"><g><path d="M 0.90625 -6.703125 L 1.59375 -6.703125 L 1.59375 0 L 0.90625 0 Z M 0.90625 -6.703125 "/></g></g></g><g fill="#f6f4f1" fill-opacity="1"><g transform="translate(243.811559, 221.189532)"><g><path d="M 3.8125 0.09375 C 3.351562 0.09375 2.921875 0.00390625 2.515625 -0.171875 C 2.117188 -0.347656 1.769531 -0.585938 1.46875 -0.890625 C 1.164062 -1.203125 0.925781 -1.5625 0.75 -1.96875 C 0.582031 -2.382812 0.5 -2.832031 0.5 -3.3125 C 0.5 -3.800781 0.585938 -4.253906 0.765625 -4.671875 C 0.941406 -5.097656 1.179688 -5.46875 1.484375 -5.78125 C 1.785156 -6.101562 2.140625 -6.351562 2.546875 -6.53125 C 2.953125 -6.707031 3.382812 -6.796875 3.84375 -6.796875 C 4.34375 -6.796875 4.8125 -6.691406 5.25 -6.484375 C 5.6875 -6.273438 6.0625 -5.988281 6.375 -5.625 L 5.84375 -5.1875 C 5.582031 -5.476562 5.28125 -5.703125 4.9375 -5.859375 C 4.59375 -6.023438 4.226562 -6.109375 3.84375 -6.109375 C 3.46875 -6.109375 3.125 -6.035156 2.8125 -5.890625 C 2.5 -5.753906 2.222656 -5.5625 1.984375 -5.3125 C 1.753906 -5.070312 1.570312 -4.78125 1.4375 -4.4375 C 1.3125 -4.101562 1.25 -3.738281 1.25 -3.34375 C 1.25 -2.957031 1.3125 -2.59375 1.4375 -2.25 C 1.570312 -1.914062 1.753906 -1.625 1.984375 -1.375 C 2.222656 -1.132812 2.5 -0.941406 2.8125 -0.796875 C 3.132812 -0.660156 3.484375 -0.59375 3.859375 -0.59375 C 4.273438 -0.59375 4.65625 -0.675781 5 -0.84375 C 5.34375 -1.007812 5.632812 -1.234375 5.875 -1.515625 L 5.875 -2.953125 L 3.84375 -2.953125 L 3.84375 -3.59375 L 6.5625 -3.59375 L 6.5625 -1.375 C 6.238281 -0.90625 5.835938 -0.539062 5.359375 -0.28125 C 4.890625 -0.03125 4.375 0.09375 3.8125 0.09375 Z M 3.8125 0.09375 "/></g></g></g><g fill="#f6f4f1" fill-opacity="1"><g transform="translate(253.178719, 221.189532)"><g><path d="M 1.578125 -5.203125 L 1.578125 0 L 0.90625 0 L 0.90625 -6.90625 L 1.09375 -6.90625 L 5.625 -1.484375 L 5.625 -6.703125 L 6.296875 -6.703125 L 6.296875 0.203125 L 6.09375 0.203125 Z M 1.578125 -5.203125 "/></g></g></g><g fill="#f6f4f1" fill-opacity="1"><g transform="translate(262.525898, 221.189532)"><g/></g></g><g fill="#f6f4f1" fill-opacity="1"><g transform="translate(266.875041, 221.189532)"><g><path d="M 2.515625 0.09375 C 2.054688 0.09375 1.632812 -0.0078125 1.25 -0.21875 C 0.875 -0.4375 0.554688 -0.75 0.296875 -1.15625 L 0.84375 -1.59375 C 1.3125 -0.894531 1.867188 -0.546875 2.515625 -0.546875 C 2.910156 -0.546875 3.226562 -0.648438 3.46875 -0.859375 C 3.707031 -1.078125 3.828125 -1.359375 3.828125 -1.703125 C 3.828125 -2.015625 3.71875 -2.28125 3.5 -2.5 C 3.289062 -2.71875 2.941406 -2.925781 2.453125 -3.125 C 1.847656 -3.351562 1.410156 -3.625 1.140625 -3.9375 C 0.867188 -4.25 0.734375 -4.625 0.734375 -5.0625 C 0.734375 -5.320312 0.773438 -5.554688 0.859375 -5.765625 C 0.953125 -5.984375 1.078125 -6.164062 1.234375 -6.3125 C 1.398438 -6.46875 1.59375 -6.585938 1.8125 -6.671875 C 2.039062 -6.753906 2.289062 -6.796875 2.5625 -6.796875 C 3.320312 -6.796875 3.953125 -6.457031 4.453125 -5.78125 L 3.921875 -5.34375 C 3.722656 -5.625 3.507812 -5.828125 3.28125 -5.953125 C 3.0625 -6.085938 2.816406 -6.15625 2.546875 -6.15625 C 2.210938 -6.15625 1.941406 -6.0625 1.734375 -5.875 C 1.535156 -5.6875 1.4375 -5.4375 1.4375 -5.125 C 1.4375 -4.820312 1.535156 -4.566406 1.734375 -4.359375 C 1.941406 -4.148438 2.285156 -3.953125 2.765625 -3.765625 C 3.367188 -3.523438 3.8125 -3.242188 4.09375 -2.921875 C 4.382812 -2.597656 4.53125 -2.210938 4.53125 -1.765625 C 4.53125 -1.492188 4.476562 -1.242188 4.375 -1.015625 C 4.28125 -0.785156 4.140625 -0.585938 3.953125 -0.421875 C 3.773438 -0.253906 3.5625 -0.125 3.3125 -0.03125 C 3.070312 0.0507812 2.804688 0.09375 2.515625 0.09375 Z M 2.515625 0.09375 "/></g></g></g><g fill="#f6f4f1" fill-opacity="1"><g transform="translate(274.053073, 221.189532)"><g><path d="M 2.5 -6.046875 L 0.296875 -6.046875 L 0.296875 -6.703125 L 5.40625 -6.703125 L 5.40625 -6.046875 L 3.203125 -6.046875 L 3.203125 0 L 2.5 0 Z M 2.5 -6.046875 "/></g></g></g><g fill="#f6f4f1" fill-opacity="1"><g transform="translate(281.90083, 221.189532)"><g><path d="M 3.265625 0.09375 C 2.898438 0.09375 2.566406 0.0234375 2.265625 -0.109375 C 1.972656 -0.242188 1.722656 -0.429688 1.515625 -0.671875 C 1.304688 -0.921875 1.140625 -1.21875 1.015625 -1.5625 C 0.898438 -1.914062 0.84375 -2.300781 0.84375 -2.71875 L 0.84375 -6.703125 L 1.546875 -6.703125 L 1.546875 -2.78125 C 1.546875 -2.445312 1.585938 -2.140625 1.671875 -1.859375 C 1.753906 -1.585938 1.875 -1.351562 2.03125 -1.15625 C 2.1875 -0.96875 2.367188 -0.816406 2.578125 -0.703125 C 2.796875 -0.597656 3.039062 -0.546875 3.3125 -0.546875 C 3.570312 -0.546875 3.8125 -0.597656 4.03125 -0.703125 C 4.25 -0.816406 4.429688 -0.96875 4.578125 -1.15625 C 4.734375 -1.351562 4.851562 -1.585938 4.9375 -1.859375 C 5.019531 -2.140625 5.0625 -2.445312 5.0625 -2.78125 L 5.0625 -6.703125 L 5.75 -6.703125 L 5.75 -2.71875 C 5.75 -2.300781 5.6875 -1.914062 5.5625 -1.5625 C 5.4375 -1.21875 5.265625 -0.921875 5.046875 -0.671875 C 4.828125 -0.429688 4.5625 -0.242188 4.25 -0.109375 C 3.945312 0.0234375 3.617188 0.09375 3.265625 0.09375 Z M 3.265625 0.09375 "/></g></g></g><g fill="#f6f4f1" fill-opacity="1"><g transform="translate(290.648235, 221.189532)"><g><path d="M 0.90625 -6.703125 L 3.09375 -6.703125 C 3.601562 -6.703125 4.070312 -6.617188 4.5 -6.453125 C 4.9375 -6.285156 5.3125 -6.050781 5.625 -5.75 C 5.945312 -5.445312 6.195312 -5.085938 6.375 -4.671875 C 6.5625 -4.265625 6.65625 -3.820312 6.65625 -3.34375 C 6.65625 -2.863281 6.5625 -2.421875 6.375 -2.015625 C 6.195312 -1.609375 5.945312 -1.253906 5.625 -0.953125 C 5.3125 -0.660156 4.9375 -0.425781 4.5 -0.25 C 4.070312 -0.0820312 3.601562 0 3.09375 0 L 0.90625 0 Z M 3.078125 -0.65625 C 3.484375 -0.65625 3.859375 -0.71875 4.203125 -0.84375 C 4.554688 -0.976562 4.859375 -1.164062 5.109375 -1.40625 C 5.359375 -1.644531 5.550781 -1.929688 5.6875 -2.265625 C 5.832031 -2.597656 5.90625 -2.957031 5.90625 -3.34375 C 5.90625 -3.738281 5.832031 -4.101562 5.6875 -4.4375 C 5.550781 -4.769531 5.359375 -5.054688 5.109375 -5.296875 C 4.859375 -5.535156 4.554688 -5.71875 4.203125 -5.84375 C 3.859375 -5.976562 3.484375 -6.046875 3.078125 -6.046875 L 1.59375 -6.046875 L 1.59375 -0.65625 Z M 3.078125 -0.65625 "/></g></g></g><g fill="#f6f4f1" fill-opacity="1"><g transform="translate(299.945426, 221.189532)"><g><path d="M 0.90625 -6.703125 L 1.59375 -6.703125 L 1.59375 0 L 0.90625 0 Z M 0.90625 -6.703125 "/></g></g></g><g fill="#f6f4f1" fill-opacity="1"><g transform="translate(304.594451, 221.189532)"><g><path d="M 3.84375 0.09375 C 3.382812 0.09375 2.953125 0.00390625 2.546875 -0.171875 C 2.140625 -0.347656 1.785156 -0.59375 1.484375 -0.90625 C 1.179688 -1.21875 0.941406 -1.582031 0.765625 -2 C 0.585938 -2.414062 0.5 -2.863281 0.5 -3.34375 C 0.5 -3.820312 0.585938 -4.269531 0.765625 -4.6875 C 0.941406 -5.101562 1.179688 -5.46875 1.484375 -5.78125 C 1.785156 -6.101562 2.140625 -6.351562 2.546875 -6.53125 C 2.953125 -6.707031 3.382812 -6.796875 3.84375 -6.796875 C 4.3125 -6.796875 4.75 -6.707031 5.15625 -6.53125 C 5.5625 -6.351562 5.914062 -6.101562 6.21875 -5.78125 C 6.519531 -5.46875 6.757812 -5.101562 6.9375 -4.6875 C 7.113281 -4.269531 7.203125 -3.820312 7.203125 -3.34375 C 7.203125 -2.875 7.113281 -2.429688 6.9375 -2.015625 C 6.757812 -1.597656 6.519531 -1.234375 6.21875 -0.921875 C 5.914062 -0.609375 5.5625 -0.359375 5.15625 -0.171875 C 4.75 0.00390625 4.3125 0.09375 3.84375 0.09375 Z M 3.84375 -0.59375 C 4.21875 -0.59375 4.5625 -0.660156 4.875 -0.796875 C 5.195312 -0.941406 5.472656 -1.132812 5.703125 -1.375 C 5.929688 -1.625 6.113281 -1.914062 6.25 -2.25 C 6.382812 -2.59375 6.453125 -2.957031 6.453125 -3.34375 C 6.453125 -3.738281 6.382812 -4.101562 6.25 -4.4375 C 6.113281 -4.78125 5.929688 -5.070312 5.703125 -5.3125 C 5.472656 -5.5625 5.195312 -5.753906 4.875 -5.890625 C 4.5625 -6.035156 4.21875 -6.109375 3.84375 -6.109375 C 3.476562 -6.109375 3.132812 -6.035156 2.8125 -5.890625 C 2.5 -5.753906 2.226562 -5.5625 2 -5.3125 C 1.769531 -5.070312 1.585938 -4.78125 1.453125 -4.4375 C 1.316406 -4.101562 1.25 -3.738281 1.25 -3.34375 C 1.25 -2.957031 1.316406 -2.59375 1.453125 -2.25 C 1.585938 -1.914062 1.769531 -1.625 2 -1.375 C 2.226562 -1.132812 2.5 -0.941406 2.8125 -0.796875 C 3.132812 -0.660156 3.476562 -0.59375 3.84375 -0.59375 Z M 3.84375 -0.59375 "/></g></g></g></svg>